<?xml version="1.0" encoding="UTF-8"?>
<!DOCTYPE svg PUBLIC "-//W3C//DTD SVG 1.1//EN" "http://www.w3.org/Graphics/SVG/1.1/DTD/svg11.dtd">
<!-- Creator: CorelDRAW 2021.5 -->
<svg xmlns="http://www.w3.org/2000/svg" xml:space="preserve" width="297mm" height="210mm" version="1.1" style="shape-rendering:geometricPrecision; text-rendering:geometricPrecision; image-rendering:optimizeQuality; fill-rule:evenodd; clip-rule:evenodd"
viewBox="0 0 29700 21000"
 xmlns:xlink="http://www.w3.org/1999/xlink"
 xmlns:xodm="http://www.corel.com/coreldraw/odm/2003">
 <defs>
  <style type="text/css">
   <![CDATA[
    .str0 {stroke:#FEFEFE;stroke-width:20;stroke-miterlimit:22.9256}
    .fil2 {fill:none}
    .fil0 {fill:#2B2A29;fill-rule:nonzero}
    .fil1 {fill:#E31E24;fill-rule:nonzero}
   ]]>
  </style>
 </defs>
 <g id="Слой_x0020_1">
  <metadata id="CorelCorpID_0Corel-Layer"/>
  <path class="fil0" d="M7918.38 11317.55c0,165.63 -13.87,317.43 -41.45,460.13 -27.59,142.56 -73.63,271.46 -142.56,381.85 -64.42,105.83 -151.91,193.25 -266.88,253.01 -115.07,64.52 -257.63,96.73 -427.92,96.73 -124.21,0 -234.66,-23.07 -326.67,-64.38 -96.62,-41.45 -174.87,-101.35 -239.29,-174.91 -64.41,-78.24 -114.97,-165.63 -156.42,-266.84 -36.83,-96.66 -64.38,-207.12 -82.76,-326.71 -18.45,-119.59 -27.69,-239.29 -27.69,-368.12 0,-161.01 13.86,-312.81 41.41,-455.51 32.21,-142.56 78.28,-266.87 142.7,-377.22 69.04,-105.87 156.42,-193.25 266.88,-257.78 114.97,-59.79 248.42,-92 414.05,-92 156.42,0 289.84,32.21 395.71,96.62 110.49,59.91 197.88,147.29 262.26,257.67 69.04,105.84 115,234.67 142.7,377.33 32.06,142.7 45.93,294.5 45.93,460.13zm-933.98 1683.92c220.84,0 423.3,-32.18 607.31,-96.59 188.59,-59.8 349.63,-147.18 496.95,-257.67 142.67,-114.94 266.88,-248.39 363.47,-400.19 101.25,-151.91 179.39,-317.54 230.08,-496.93 50.56,-179.49 78.14,-368.12 78.14,-565.96 0,-234.7 -32.21,-446.4 -92,-639.51 -64.42,-188.74 -161.04,-349.78 -289.88,-483.2 -133.42,-133.46 -299.08,-239.19 -501.54,-308.23 -202.36,-73.66 -441.65,-110.49 -722.35,-110.49 -229.98,0 -446.3,36.83 -639.52,110.49 -193.25,73.52 -363.5,174.77 -515.3,308.23 -147.32,128.8 -271.5,285.22 -368.12,460.09 -96.63,179.49 -165.67,372.74 -202.46,584.34l-722.38 0 0 -837.35c0,-78.28 13.82,-138.08 41.45,-179.5 22.96,-41.34 64.38,-69.04 110.45,-82.76l216.18 -73.66c0,-45.97 0,-87.38 -4.58,-124.21 0,-36.83 -9.14,-73.66 -18.35,-114.97l-1440.18 0c-9.2,27.59 -13.83,55.17 -18.45,82.76 -4.51,22.97 -4.51,46.07 -4.51,73.66l0 87.38c32.1,9.21 59.79,18.35 87.38,27.59 27.59,9.24 50.59,18.45 64.42,27.69 18.34,9.14 27.59,13.76 27.59,13.76 36.83,13.72 64.41,27.55 87.38,41.42 23.07,13.76 41.45,32.21 50.69,59.79 13.73,22.97 18.35,55.18 18.35,101.25l0 1440.15 -4.62 722.38c0,55.17 -4.52,92 -9.14,119.59 -9.21,27.59 -23.07,50.55 -46.04,64.42 -22.96,13.86 -55.17,27.58 -96.62,46.07l-207.09 82.73c0,50.58 4.63,96.66 4.63,142.66 4.62,41.45 13.82,82.8 18.45,119.63l1568.98 0c9.13,-32.21 18.34,-69.04 22.96,-110.35 4.62,-46.07 9.24,-96.63 9.24,-151.94l-257.77 -59.8c-50.55,-13.86 -96.49,-22.93 -124.18,-41.42 -32.21,-13.72 -50.59,-32.2 -64.45,-59.79 -13.72,-27.59 -18.35,-59.8 -18.35,-105.87l-13.82 -763.69 0 -128.84 690.17 0c4.62,317.43 64.42,584.34 184.11,805.15 114.98,216.21 289.85,386.47 524.51,496.92 234.57,115.01 524.44,174.77 878.81,174.77z"/>
  <path class="fil0" d="M11268.03 12007.74c0,101.22 -18.45,193.26 -59.8,271.47 -41.45,73.66 -105.87,137.93 -197.87,179.38 -87.49,46.08 -207.08,69.04 -358.88,69.04l-418.68 0 -13.83 -869.56 0 -174.87 253.02 0c161.04,0 289.87,13.83 395.71,41.45 101.24,22.97 184.11,59.8 243.91,110.35 55.17,46.04 96.62,101.25 124.21,165.66 22.97,59.76 32.21,133.42 32.21,207.08zm-234.67 -1426.31c0,59.79 -4.62,114.97 -13.76,174.76 -13.86,55.32 -36.79,110.46 -69.04,156.43 -36.79,46.07 -87.49,82.9 -151.9,115.07 -64.38,27.59 -151.77,41.45 -262.26,41.45l-317.43 0 0 -952.46 275.98 0c115.11,0 207.12,13.76 280.74,36.83 69.04,22.96 124.21,55.17 161.04,96.52 36.83,46.04 64.42,92.11 78.15,147.28 13.86,59.8 18.48,119.7 18.48,184.12zm1076.64 1320.45c0,-105.73 -22.96,-202.46 -59.79,-280.6 -41.45,-78.29 -92.01,-142.7 -156.42,-197.88 -64.42,-55.17 -133.42,-101.24 -207.08,-133.45 -73.52,-32.21 -142.67,-59.8 -207.09,-78.25 -68.93,-13.72 -128.83,-27.59 -174.76,-32.21l0 -9.1c-4.62,-4.62 -4.62,-9.24 0,-9.24 41.41,-13.87 87.38,-32.21 137.93,-50.7 50.66,-22.96 101.25,-45.93 151.91,-78.14 50.69,-32.21 96.63,-73.62 138.04,-115.07 41.45,-45.97 78.18,-101.25 101.25,-165.63 27.59,-64.45 41.45,-138.11 41.45,-220.84 0,-151.8 -32.21,-280.74 -92.11,-386.47 -59.79,-105.87 -142.66,-193.25 -257.67,-262.29 -110.35,-64.42 -243.77,-115.08 -400.29,-142.66 -156.43,-32.21 -335.81,-45.97 -529.17,-45.97l-1541.25 0c-4.62,23 -9.25,50.59 -13.87,73.55 -4.62,23.08 -4.62,46.08 -4.62,78.29 -4.62,27.55 -4.62,64.38 -4.62,110.45l133.46 36.8c36.79,9.13 78.24,23 119.69,41.34 41.31,18.49 73.52,46.07 101.11,78.28 32.21,32.21 46.07,78.14 46.07,133.42l0 1403.32 -9.24 717.79c0,46.08 -13.72,87.35 -36.83,119.6 -18.34,27.69 -50.55,55.28 -82.76,73.62 -36.83,18.49 -73.63,36.83 -110.46,46.07l-165.66 50.56 0 101.24c4.62,32.21 4.62,64.42 9.24,91.97 4.62,32.21 13.87,64.42 22.97,96.63l1674.85 0c234.66,0 437.12,-27.59 607.37,-78.14 174.8,-55.32 317.47,-124.21 432.54,-220.95 110.35,-91.96 197.88,-202.31 253.05,-331.18 55.18,-124.29 82.76,-262.26 82.76,-414.16z"/>
  <path class="fil0" d="M15234.21 12141.14l-326.67 -73.63c-32.21,92.08 -73.66,161.04 -124.21,220.95 -46.07,55.14 -101.25,101.21 -161.04,128.8 -59.91,32.2 -128.84,55.21 -197.84,69.03 -73.66,13.73 -147.29,18.35 -230.08,23.01l-593.55 22.93 -18.49 -878.77 0 -128.87 1246.93 23 0 -469.37 -1246.93 23.07 0 -989.23 777.7 18.35c59.8,0 119.59,4.62 170.15,23.07 46.07,18.38 92.11,55.17 128.94,105.76 36.72,55.28 64.41,128.94 87.38,230.05 27.59,0 59.79,0 101.21,-4.52 41.45,0 82.8,-4.62 124.21,-9.2 36.83,-4.62 69.04,-9.25 96.63,-13.87l0 -768.31 -2650.24 0c-9.25,22.96 -13.83,45.93 -13.83,69 -4.62,27.59 -4.62,50.55 -4.62,82.76l0 64.42 0 78.28 253.15 114.97c27.59,9.24 50.55,23.07 69.04,36.83 22.93,13.83 41.27,41.42 55.17,73.66 13.73,36.8 18.35,82.87 18.35,151.77l0 1279.13 -13.76 800.63c0,27.63 -9.21,55.18 -27.69,73.66 -22.97,22.97 -45.94,36.8 -78.18,50.56 -32.17,13.82 -64.38,22.96 -101.21,32.2l-193.22 46.08 0 142.55c4.62,46.04 13.72,101.22 22.97,156.5l2700.9 0 128.83 -805.25z"/>
  <path class="fil0" d="M19283.18 12688.7l-289.84 -101.25c-36.83,-13.86 -64.42,-36.83 -82.87,-73.62 -13.76,-41.35 -23,-96.63 -23,-170.15l-13.72 -690.21 0 -1440.14c0,-41.42 4.48,-73.63 18.34,-101.25 9.25,-27.69 27.59,-46.04 46.08,-64.38 18.34,-13.86 41.31,-27.69 69,-36.83l197.77 -78.28 0 -110.46c0,-41.31 -4.52,-82.76 -13.76,-128.83l-1463.22 0c-4.51,27.69 -9.14,50.69 -13.76,78.28l0 73.63c0,27.62 4.62,59.79 9.25,92l211.59 64.42c32.21,9.24 59.8,18.38 82.87,32.21 23,13.86 41.34,32.2 55.17,59.79 13.76,27.59 18.38,69.01 18.38,119.7l0 892.56 -1426.31 0 0 -837.39c0,-78.24 13.72,-138.04 41.31,-179.49 23.1,-41.31 64.56,-69 110.49,-82.76l216.32 -73.66c0,-46.04 0,-87.38 -4.62,-124.21 0,-36.8 -9.24,-73.63 -18.49,-115.08l-1440.14 0c-9.21,27.69 -13.72,55.32 -18.34,82.87 -4.63,23 -4.63,45.96 -4.63,73.66l0 87.38 179.53 69.04c36.69,13.76 68.9,27.59 91.97,41.45 22.97,13.72 36.83,32.21 50.59,59.8 9.21,22.96 13.83,55.14 13.83,101.21l0 1440.14 -4.62 722.39c0,55.17 -4.62,92 -9.21,119.62 -9.24,27.59 -23,50.66 -45.97,64.38 -23.07,13.87 -55.28,27.59 -96.59,46.04l-207.11 82.8c0,50.69 4.62,96.59 4.62,142.66 4.51,41.45 13.76,82.8 18.34,119.63l1568.98 0c9.24,-32.21 18.45,-69.04 22.97,-110.38 4.62,-46.08 9.24,-96.74 9.24,-151.91l-257.63 -59.8c-50.56,-13.86 -96.63,-23 -124.22,-41.45 -32.21,-13.72 -50.69,-32.21 -64.41,-59.76 -13.87,-27.62 -18.49,-59.83 -18.49,-105.87l-13.72 -763.73 0 -128.8 1426.31 0 0 124.18 -9.13 731.52c0,50.66 -13.87,92.11 -36.83,124.32 -18.45,27.59 -50.66,50.55 -92.11,68.9l-294.36 115.11c0,59.76 4.51,110.46 4.51,151.91 4.63,36.72 13.83,73.55 18.45,105.76l1568.98 0c9.25,-23 13.76,-45.97 18.35,-69.04 4.62,-23 9.24,-50.59 9.24,-78.17 4.62,-32.18 4.62,-69.01 4.62,-110.46z"/>
  <path class="fil0" d="M22688.04 9693.36l-3239.31 0 0 910.98c18.48,4.62 36.83,9.24 69.14,9.24 27.59,4.62 59.8,9.24 92.01,9.24l87.38 0c27.59,0 46.07,0 55.17,-4.62 18.49,-92 41.45,-170.25 73.66,-239.29 27.59,-69.04 69.04,-124.21 119.59,-165.63 50.66,-41.45 115.08,-64.41 188.74,-69.04l538.37 -32.2 0 1578.22 -13.86 542.99c0,41.31 -9.21,87.39 -27.69,128.8 -13.73,45.93 -36.73,82.76 -64.28,119.59 -27.73,32.21 -59.94,55.21 -96.77,69.04l-294.32 87.39 0 64.41c0,27.59 0,55.28 4.48,87.49 0,27.62 0,59.8 4.62,87.39 4.63,27.58 4.63,50.58 9.25,69.03l1757.57 0c4.62,-13.86 4.62,-36.83 9.24,-64.41 0,-27.59 4.62,-59.8 4.62,-92.01 4.63,-36.83 4.63,-64.41 4.63,-92.11l0 -59.79 -391.09 -82.77c-27.59,-4.62 -50.7,-13.86 -64.42,-27.58 -13.86,-13.87 -23.11,-32.32 -27.69,-50.7 -4.52,-22.96 -4.52,-50.66 -4.52,-87.34l-23.07 -699.42 0 -1578.22 496.92 32.2c124.22,9.21 220.95,55.29 289.88,138.05 69,78.28 115.08,193.25 142.66,335.91 9.21,4.62 27.59,4.62 50.66,4.62l87.38 0c32.21,-4.62 64.42,-4.62 92.01,-9.24 32.21,-4.62 55.17,-4.62 69.04,-9.24l0 -910.98z"/>
  <path class="fil0" d="M24689.5 11331.37l-754.59 0 262.25 -699.42 128.84 -381.85 27.59 0 110.49 395.68 225.42 685.59zm1449.39 1343.52c-41.45,-41.42 -78.25,-82.77 -115.08,-128.8 -36.83,-41.45 -69.04,-92.01 -92,-147.18l-1072.02 -2779.19 -722.39 151.8 -1131.95 2618.14c-18.35,41.32 -41.46,78.15 -59.8,110.35 -22.97,27.59 -45.93,55.28 -69.04,82.91 -27.59,22.96 -55.17,55.17 -92,87.34 0,50.7 0,101.25 4.62,147.32 0,45.94 9.24,87.35 18.34,128.8l1256.17 0c13.73,-46.03 22.97,-96.59 22.97,-151.87 4.62,-55.21 4.62,-101.24 4.62,-147.18l-331.29 -96.62c-22.97,-9.24 -50.56,-18.49 -78.14,-32.25 -23.11,-18.45 -46.08,-41.41 -64.42,-69 -18.49,-32.21 -27.59,-73.66 -27.59,-124.21 0,-27.7 4.52,-50.7 9.1,-82.87 4.63,-27.59 13.87,-59.8 23.11,-92l165.53 -437.17 1026.08 0 156.43 478.62c13.83,32.21 23.07,59.79 27.69,87.34 4.51,27.59 9.14,55.21 9.14,82.91 0,45.96 -9.14,87.38 -36.83,119.55 -22.97,32.25 -59.8,59.84 -114.97,78.29l-243.91 87.41c0,41.31 0,78.14 4.62,114.97 0,32.21 4.58,64.42 9.2,92.11 4.63,27.59 13.87,59.76 27.63,91.97l1453.97 0c9.14,-32.21 18.34,-59.76 22.97,-87.34 4.62,-27.7 4.62,-55.32 9.24,-87.53l0 -96.62z"/>
  <path class="fil0" d="M18228.58 15004.84c-2.43,-50.87 -7.62,-99.24 -15.38,-145.21 -7.83,-45.57 -19.61,-87.38 -35.38,-125.13 -15.95,-37.74 -37.54,-69.95 -64.45,-97.08 -26.99,-26.92 -60.93,-47.1 -101.57,-60.61 -40.88,-13.4 -90.03,-18.69 -147.42,-15.91 -51.79,2.86 -97.9,14.89 -138.5,35.42 -40.64,20.67 -74.69,48.12 -102.63,82.3 -27.94,34.19 -48.47,73.31 -61.98,117.16 -13.51,43.85 -18.94,90.42 -16.65,139.91 3.7,60.01 18.24,110.49 44.24,151.8 26.07,41.35 61.27,72.15 105.48,92.36 44.24,20.18 95.46,28.96 153.53,26.18 28.54,-1.73 55.77,-6.35 81.84,-13.37 26,-7.41 52.18,-15.7 78.74,-25.3l-15.8 -82.51c-31.29,7.41 -62.69,11.85 -94.34,13.47 -67.87,3.36 -119.48,-12.1 -154.3,-46.49 -34.89,-34.43 -54.15,-86.11 -57.61,-155.12 -1.62,-28.78 -0.6,-57.08 3.46,-85.34 4.02,-28.04 11.78,-53.79 23.53,-77.47 11.89,-23.42 28.4,-42.72 50.23,-57.46 21.45,-14.89 49.04,-23.46 82.52,-25.51 36.62,-1.62 68.37,4.38 95.35,17.78 26.92,13.48 49.64,32.21 68.23,56.3 18.45,24.03 33.37,51.26 45.02,81.64 11.32,30.12 19.96,61.28 25.75,93.24 5.75,32.13 9.45,62.61 10.72,92.04 2.3,38.2 2.9,76.83 2.3,115.88 -0.78,38.88 -3.92,76.91 -9.78,114.16 -5.78,36.94 -15.27,71.79 -28.18,104.35 -12.91,32.32 -30.59,61.21 -52.99,86.36 -22.4,25.37 -50.55,45.62 -84.49,61.07 -34.08,15.13 -74.79,24.24 -122.38,27.02 -19.72,1.03 -38.77,0.53 -56.55,-1.41 -18.13,-1.83 -36.72,-5.18 -56.2,-9.95l-22.65 114.76c23.32,7.16 47.56,11.64 72.04,13.51 24.84,1.84 49.32,1.98 73.87,0.46 51.62,-3 98.25,-13.86 139.81,-32.56 41.66,-18.48 78.49,-43.18 110.6,-74.12 31.96,-30.94 59.44,-65.9 82.3,-105.37 22.82,-39.58 41.17,-81.81 55.38,-126.65 13.97,-44.87 23.78,-90.35 29.57,-137.23 5.43,-46.53 7.02,-92.46 4.72,-137.37zm-764.18 293.65l-165.07 -32.98c-12.8,-2.69 -22.15,-5.44 -28.04,-8.65 -5.89,-3.14 -9.7,-8.36 -11.54,-15.38 -1.97,-7.37 -3.35,-18.38 -4.06,-33.34l-11.88 -218.08 -14.64 -417.76 -347.35 53.83 2.89 81.81 218.16 -7.62 10.27 294.25 3.24 215.51c-0.35,19.16 -5.08,34.15 -14.53,44.81 -9.7,10.86 -22.54,18.45 -39.16,23.17l-129.4 41.91c-0.21,6.46 0,13.87 0.81,22.41 0.6,8.64 1.62,17.53 3.14,26.28 1.27,8.82 2.75,16.9 4.38,24.27l519.67 -18.13c0.81,-4.17 1.48,-9.81 1.98,-16.83 0.56,-6.95 0.92,-14.68 1.13,-22.65 0.24,-7.83 0.24,-15.03 0.24,-21.7 0,-6.7 -0.24,-11.78 -0.24,-15.13zm-1016.25 -606.71c-0.81,-17.78 -7.06,-32.21 -18.73,-43.74 -12,-11.33 -27.2,-20.11 -45.69,-26.53 -18.84,-6.39 -38.8,-11.01 -59.93,-13.76 -21.35,-2.79 -41.42,-4.51 -60.82,-4.94 -19.51,-0.6 -36.02,-0.6 -49.18,-0.35 -45.93,1.02 -88.19,9 -126.4,23.78 -38.31,14.99 -72.5,35.31 -102.38,61.17 -29.77,25.82 -54.82,55.74 -75.24,89.92 -20.57,33.83 -35.95,70.52 -46.29,109.65 -10.3,39.22 -15.38,79.55 -14.57,121.21 1.03,73.77 7.87,136.81 20.43,189.09 12.7,52.39 33.12,94.65 61.17,127.21 28.19,32.77 65.83,56.3 113.03,70.98 47.2,14.78 105.73,21.48 175.89,19.97 31.54,-0.82 60.51,-3.46 86.72,-8.19 26.21,-4.94 49.39,-10.72 69.6,-17.57 20.32,-6.77 37.39,-13.51 50.91,-20.18 13.51,-6.8 23.77,-12.48 30.12,-17.07l-25.75 -74.22c-8.29,2.99 -19.51,6.24 -33.34,9.59 -13.86,3.42 -29.1,6.77 -46.07,9.67 -16.97,3.24 -33.83,5.64 -51.36,7.62 -17.68,1.94 -34.15,3.24 -49.64,3.45 -53.9,0.82 -98.25,-5.89 -133.56,-19.86 -34.86,-14.07 -62.34,-34.39 -82.2,-61.06 -19.86,-26.74 -33.83,-58.28 -42.12,-95.01 -8.33,-37.04 -12.59,-77.68 -13.16,-122.34 -1.27,-73.55 5.65,-132.54 20.89,-177.31 15.24,-44.8 39.37,-77.57 72.03,-98 32.67,-20.63 74.69,-31.29 125.84,-31.64 19.4,-0.11 38.45,3.35 56.44,10.76 18.35,7.02 35.56,16.4 51.47,27.8 16.3,11.18 30.84,23.21 43.75,35.56 12.94,12.59 23.92,24.13 32.66,34.75 20.92,-13.06 37.19,-29.67 48.48,-49.29 11.67,-19.51 17.21,-43.42 17,-71.12zm-1435.06 331.09c-47.24,0.77 -85.2,-4.27 -113.85,-15.03 -28.64,-10.73 -49.53,-26.67 -62.54,-48.23 -13.06,-21.48 -19.76,-48.26 -20.11,-79.8 -0.35,-47.2 13.86,-83.78 43.04,-110.45 29.24,-26.57 70.91,-40.75 125.27,-41.88l111.97 -1.97 5.22 295.84 -89 1.52zm-423.44 433.98c13.86,-0.67 28.96,-2.4 45.36,-4.8 16.3,-2.64 32.57,-5.53 48.48,-9.24 15.94,-3.38 30.26,-6.91 43.18,-10.3 12.59,-3.35 22.4,-6.46 29.1,-8.64 13.51,-4.87 27.69,-15.14 42.93,-30.69 15.35,-15.63 31.05,-34.79 46.89,-57.61 15.91,-22.76 31.96,-47.45 47.76,-74.23 15.81,-26.67 30.94,-53.55 45.83,-80.82 14.53,-27.13 28.29,-52.74 40.78,-76.62l123.51 -2.22 -0.5 135.07c0.14,8.89 -1.62,19.05 -5.08,30.03 -3.56,11.07 -8.89,21.44 -15.91,31.36 -7.26,9.95 -15.91,17.6 -26.42,22.75l-65.48 32.81c-0.56,9.31 -0.21,19.61 0.96,30.34 1.13,10.97 2.85,21.8 4.48,32.81l369.04 -6.49c1.73,-5.75 3.1,-13.52 3.7,-23.32 0.46,-9.81 0.81,-19.41 0.92,-28.72 0,-9.59 -0.11,-16.76 -0.11,-21.27l-112.43 -21.13c-8.92,-0.92 -14.43,-4.27 -16.51,-9.46 -1.97,-4.97 -3.14,-13.37 -2.78,-24.55l-9.35 -201.01 -5.19 -300.11c-0.14,-7.97 0.21,-16.05 1.48,-24.24 1.52,-8.43 4.06,-15.55 8.33,-22.15 3.81,-6.6 9.81,-10.76 17.89,-13.05l95.92 -21.7c-0.11,-4.87 -0.22,-11.78 -0.67,-21.38 -0.36,-9.31 -1.06,-19.15 -1.98,-28.61 -0.81,-9.84 -2.43,-17.53 -4.37,-23.21l-376.31 6.6c-42.16,0.67 -80.82,6.91 -116.03,18.55 -34.96,11.54 -65.34,27.94 -90.84,49.21 -25.75,21.56 -45.37,47.21 -58.99,77.44 -13.86,30.13 -20.42,64.52 -19.96,102.48 1.02,31.89 7.26,60.08 18.94,84.28 11.64,24.13 26.42,44.8 44.42,61.88 18.02,17.18 36.93,30.69 57.04,41.2 19.72,10.41 38.31,18.03 55.63,22.19 -32.1,55.39 -62.58,104.35 -91.75,146.23 -29.46,41.91 -58.07,75.28 -86.36,99.76 -9.49,7.48 -22.51,15.91 -39.62,25.26 -17.08,9.7 -36.94,18.84 -60.01,28.15l14.08 67.17zm-466.69 -820.14c-1.63,10.76 -3.25,21.74 -4.38,32.42 -1.16,11.01 -1.62,21.03 -1.06,30.63l74.12 31.5c9.35,3.7 16.83,8.22 22.51,13.26 5.89,5.22 10.16,11.01 12.91,17.43 1.41,3.49 2.44,7.51 3.14,11.92 0.92,4.24 1.52,10.02 2.08,16.97l-427 353.1 0.46 -112.08 4.37 -248.39c0.14,-7.87 0.71,-15.98 2.33,-24.17 1.62,-8.29 4.62,-15.45 9,-21.8 4.16,-6.35 10.16,-10.37 18.38,-12.34l96.59 -18.49c0.1,-4.73 0.1,-11.75 0.1,-21.24 -0.1,-9.35 -0.31,-18.94 -0.88,-28.85 -0.6,-9.81 -1.87,-17.43 -3.7,-23.18l-356.13 -6.25c-1.62,10.73 -3.21,21.7 -4.38,32.42 -1.16,10.98 -1.62,21.03 -1.02,30.59l74.08 31.54c15.49,7.27 26.32,16.93 32.32,29.56 6.03,12.56 8.68,25.26 8.22,38.63l-4.06 231.25 -8.08 213.85c-0.1,8.89 -2.18,18.98 -5.99,29.81 -4.06,10.97 -9.71,21.24 -16.97,30.8 -7.62,9.84 -16.76,17 -27.27,21.83l-66.57 30.48c-0.95,9.35 -0.95,19.62 -0.14,30.38 0.81,11.04 2.08,21.8 3.24,32.91l369.15 6.42c1.97,-5.75 3.6,-13.37 4.51,-23.17 0.82,-9.81 1.49,-19.3 1.84,-28.65 0.46,-9.56 0.56,-16.72 0.7,-21.34l-111.61 -24.94c-6,-1.03 -10.52,-2.76 -13.16,-5.3 -2.58,-2.68 -4.41,-6.24 -4.98,-11.11 -0.7,-4.48 -1.37,-10.72 -1.37,-18.31l-0.81 -36.05 425.59 -353.13 -2.79 156.56 -6.31 198.09c-0.6,8.89 -3.39,18.9 -7.87,29.66 -4.48,10.62 -10.27,20.54 -17.32,29.32 -6.81,8.78 -14.18,14.89 -22.16,17.78l-90.94 29.99c-0.25,9.34 0.1,19.65 0.67,30.51 0.46,10.94 1.27,21.8 2.54,32.88l407.84 7.02c1.94,-5.64 3.57,-13.37 4.73,-23.07 1.38,-9.81 2.19,-19.4 2.86,-28.75 0.35,-9.6 0.7,-16.72 0.81,-21.24l-124.53 -25.15c-7.87,-1.17 -13.76,-3.81 -18.03,-7.98 -4.02,-4.12 -6,-12.34 -5.75,-24.13l0.25 -262.81 4.13 -241.27c0.24,-7.87 0.81,-16.05 2.43,-24.13 1.83,-8.33 4.52,-15.49 9,-21.94 4.16,-6.32 10.16,-10.27 18.38,-12.35l96.59 -18.38c0.14,-4.8 0.24,-11.75 0.14,-21.31 -0.14,-9.38 -0.39,-18.94 -0.96,-28.78 -0.56,-9.78 -1.83,-17.54 -3.7,-23.18l-356.09 -6.25zm-1237.55 676.67c-59.58,-2.3 -109.57,-16.27 -150.42,-41.88 -40.75,-25.64 -71.37,-61.2 -91.55,-106.68 -20.21,-45.47 -29.42,-99.23 -27.48,-161.25 1.38,-52.39 6.6,-97.9 15.35,-136.91 8.57,-38.99 23.35,-70.98 44.09,-96.35 20.57,-25.19 49.67,-43.92 87.18,-55.46 37.28,-11.64 85.4,-16.4 144.28,-14.42l-21.45 612.95zm124.89 4.41l21.34 -612.95c51.5,2.08 95,10.97 130.21,26.52 35.31,15.95 63.6,37.54 84.38,64.53 21.13,27.41 35.78,59.02 44.56,95.04 8.64,35.98 12.24,75.35 10.51,117.93 -1.16,40.22 -4.62,77.01 -10.05,110.03 -5.4,33.13 -14.43,62.58 -26.78,87.98 -12.35,25.37 -29.17,46.64 -50.9,63.57 -21.35,17.01 -48.83,29.67 -82.2,37.65 -33.34,8.18 -73.77,11.32 -121.07,9.7zm-268.04 391.55l401.91 14.07c2.12,-5.64 3.85,-13.05 5.33,-22.82 1.27,-9.49 2.29,-18.88 3.11,-28.19 0.6,-9.24 1.05,-16.26 1.27,-20.78l-120.97 -33.23c-10.51,-3 -17.32,-7.06 -20.64,-12.24 -3.24,-5.29 -4.62,-13.51 -3.95,-24.7l0.11 -168.87c19.4,0.92 42.86,-0.5 70.55,-3.85 27.69,-3.35 57.36,-9.91 89.11,-19.58 31.65,-9.98 63.01,-23.91 94.41,-42.15 31.08,-18.14 59.58,-41.77 85.79,-70.91 25.97,-28.72 47.2,-64.17 63.82,-105.94 16.3,-41.91 25.75,-91.19 28.19,-147.78 2.5,-72.25 -4.98,-134.12 -21.84,-185.49 -17.07,-51.36 -42.93,-93.24 -78.03,-126.05 -34.75,-32.56 -77.93,-56.76 -129.16,-73.3 -51.36,-16.16 -109.89,-25.4 -176.28,-27.45l8.64 -246.91c0.71,-18.63 -3.91,-32.91 -13.12,-42.61 -9.24,-9.6 -23,-14.65 -40.89,-15.24 -16.01,-0.6 -33.58,0 -52.98,1.27 -19.27,1.16 -38.67,3.13 -58.64,5.78 -19.96,2.4 -38.8,5.19 -56.55,8.08 -17.88,3.21 -33.62,6 -46.88,8.96l-2.29 68.83 144.95 5.08 -7.12 202.39c-27.94,-1.2 -57.72,0.67 -89.01,5.75 -31.64,5.43 -63.25,14.18 -94.9,26.42 -31.75,12.59 -62.19,28.96 -91.3,49.53 -28.96,20.53 -54.96,45.22 -78.03,74.54 -23.32,29.46 -41.8,63.75 -55.77,102.52 -14.29,39.02 -22.37,83.36 -24.24,132.85 -1.94,62.23 3.35,116.03 16.05,161.51 12.81,45.72 31.65,84.03 56.34,115.32 25.05,31.29 54.61,56.44 88.87,75.6 34.07,19.15 71.93,33.27 113.03,42.58 41.09,9.03 84.27,14.46 129.5,15.73l-7.51 134.13c-0.89,10.97 -3.43,21.94 -7.84,32.53 -4.51,10.4 -10.51,19.75 -18.69,27.83 -7.98,8.43 -17.78,14.53 -29.46,18.38l-76.98 24.91c-1.02,9.27 -1.13,19.65 -0.56,30.58 0.46,11.11 1.62,21.94 2.65,32.92zm-650.81 -509.98c-0.25,0 -5.08,2.29 -14.67,6.67 -9.57,4.27 -22.62,9.63 -38.56,15.94 -16.05,6.35 -33.69,12.84 -53.2,19.05 -19.51,6.11 -39.13,11.08 -59.23,14.78 -19.87,4.06 -38.67,5.44 -56.1,4.73 -27.02,-1.62 -48.36,-7.02 -63.71,-15.91 -15.24,-9.28 -25.75,-20.32 -31.75,-33.62 -5.99,-13.26 -8.68,-27.37 -7.62,-41.91 1.84,-35.88 15.81,-64.63 41.91,-86.43 26.07,-21.94 63.82,-37.18 113.1,-46.07 18.95,-3.35 38.7,-6.21 59.23,-8.68 20.68,-2.29 40.08,-4.37 58.28,-6.1 18.14,-1.38 33.02,-2.54 44.35,-3.32 11.29,-0.95 17.32,-1.09 17.53,-1.09l-9.56 181.96zm292.95 145.77l-7.02 -57.93 -156.32 -8.22 4.87 -283.81 10.37 -200.31c1.98,-40.39 -2.54,-73.97 -13.62,-100.64 -10.86,-26.78 -25.96,-48.16 -45.47,-63.96 -19.61,-15.7 -41.8,-27.59 -66.04,-35.67 -24.48,-7.93 -49.39,-13.4 -74.79,-16.4 -25.29,-3 -49.18,-4.94 -71.68,-5.89 -43.29,-2.3 -86.01,-0.67 -128.73,5.11 -42.48,5.65 -83.57,15.45 -123.26,29.18l18.59 84.42c17.64,-4.62 37.75,-8.36 60.01,-11.79 22.29,-3.35 44.45,-5.99 67.06,-7.51 22.65,-1.62 43.43,-1.98 62.34,-1.06 46.63,2.22 84.38,8.33 113.13,18.49 28.75,10.05 49.29,25.96 61.77,48.01 12.46,21.94 17.64,51.96 15.46,89.68l-6 113.13c-0.25,0 -5.79,0.5 -16.41,1.03 -10.47,0.7 -24.69,1.62 -42.68,2.82 -17.92,1.27 -38.1,2.64 -60.26,4.58 -22.05,1.63 -45.05,3.81 -68.33,6.25 -33.73,3.46 -66.96,10.37 -99.66,20.64 -32.63,10.3 -62.65,24.27 -89.89,42.51 -27.37,18.23 -49.42,41.2 -66.5,68.65 -17.32,27.62 -26.88,60.36 -29.31,98.6 -1.62,40.18 5.18,74.12 20.53,102.06 15.24,27.9 36.94,49.17 64.63,64.27 27.83,15.14 59.23,23.78 94.54,25.51 28.3,1.27 54.97,-0.71 80.22,-6.11 25.19,-5.08 48.62,-12.45 69.85,-21.69 21.59,-9.39 40.89,-19.16 57.93,-29.81 17.11,-10.87 31.54,-20.89 43.32,-30.34 11.78,-9.49 20.57,-16.86 26.43,-22.65 -0.57,14.43 -0.36,28.54 0.81,43.08 1.16,14.18 4.72,27.48 10.62,39.82 6.13,12.35 15.8,22.41 29.56,30.34 13.72,8.12 32.88,12.7 57.25,14.22 10.52,0.56 23.32,-0.21 37.96,-2.08 14.78,-1.84 30.27,-4.38 46.78,-8.08 16.16,-3.46 31.96,-7.41 47.31,-11.68 15.13,-4.48 28.5,-8.99 40.07,-13.68 11.19,-4.52 19.62,-8.79 24.56,-13.09zm-1003.44 -384.99c-2.3,44.24 -8.89,84.63 -19.97,121.11 -11.33,36.58 -27.02,68.02 -48.16,94.23 -20.74,26.17 -46.99,45.93 -78.49,59.09 -31.4,13.51 -68.68,18.94 -111.72,16.97 -25.05,-1.42 -45.12,-2.69 -60.15,-4.17 -15.03,-1.51 -27.13,-2.89 -36.27,-4.51 -8.75,-1.73 -16.47,-3.25 -23.42,-4.84 -6.81,-1.83 -14.43,-3.56 -22.97,-5.53l11.33 -298.52 12.56 -239.54c6.7,-4.94 16.19,-10.73 28.08,-17.53 11.78,-6.46 25.5,-13.27 41.41,-19.65 15.95,-6.32 33.27,-11.4 52.18,-15.21 18.94,-3.84 38.8,-5.08 59.69,-4.27 31.75,1.84 59.23,9.56 82.2,22.97 22.96,13.51 42.22,31.29 57.6,53.09 15.46,21.94 27.56,46.5 36.23,73.91 8.79,27.2 14.54,55.63 17.78,85.05 3,29.67 3.57,58.64 2.09,87.35zm140.68 -21.45c4.27,-81.03 -3.91,-150.53 -24.55,-208.1 -20.78,-57.61 -54.86,-102.66 -101.85,-134.87 -46.95,-32.07 -107.56,-50.2 -182.14,-54.36 -30.12,-1.27 -57.71,2.12 -82.76,9.59 -25.04,7.41 -48.15,17.43 -68.58,29.57 -20.53,12.34 -39.01,24.8 -55.52,37.74l1.62 -31.53c1.27,-19.05 -2.29,-32.64 -10.73,-41.1 -8.43,-8.05 -22.61,-12.67 -42.36,-13.48 -16.16,-0.81 -33.84,-0.46 -53.1,0.92 -19.51,1.02 -39.26,2.89 -59.23,5.18 -20.07,2.33 -39.12,4.98 -57.01,7.62 -17.88,2.44 -33.02,4.73 -46.18,6.71l-3.56 70.31 144.85 7.51 -15.45 294.11 -32.1 530.4c-1.38,21.7 -7.62,40.4 -18.24,55.64 -10.62,15.45 -23.89,26.1 -39.58,31.99l-52.74 18.81c-1.06,5.89 -1.77,14.78 -1.87,26.77 -0.25,11.68 0.56,25.4 2.64,40.85l382.91 20.01c2.75,-6.25 4.83,-14.12 6.35,-23.32 1.37,-9.25 2.29,-18.59 2.89,-27.73 0.42,-8.79 0.56,-16.26 0.35,-21.7l-113.59 -27.58c-8.79,-2.3 -15.14,-5.08 -18.7,-8.19 -3.7,-3 -5.89,-6.81 -6.7,-10.86 -0.46,-4.13 -0.71,-8.65 -0.25,-13.97l1.17 -186.87c12.55,2.54 24.94,4.94 37.04,6.67 12.13,1.87 26,3.59 41.45,5.11 15.59,1.48 34.61,2.75 57.4,3.92 39.08,2.29 77.89,0 115.64,-6.81 37.95,-6.95 73.66,-19.4 107.35,-37.29 33.58,-18.13 63.6,-42.97 90.27,-74.58 26.53,-31.5 48.02,-70.87 64.63,-118.21 16.41,-47.35 26.57,-103.65 30.23,-168.88zm-871.85 -189.05l15.24 -217.84 -611.79 -42.72c-2.22,10.65 -4.41,21.48 -6.14,32.21 -1.73,10.86 -2.64,20.92 -2.54,30.48l72.39 35.31c15,7.76 25.3,18.38 30.59,31.18 5.43,12.56 7.41,25.72 6.24,39.13l-16.19 230.61 -19.26 213.22c-0.57,8.78 -3.11,18.73 -7.48,29.42 -4.62,10.76 -10.87,20.57 -18.73,29.91 -8.08,9.25 -17.43,16.06 -28.26,20.32l-68.12 26.92c-2.65,10.62 -3.56,21.13 -2.65,31.5 0.71,10.38 1.63,20.99 2.54,31.86l411.31 28.75c2.29,-5.68 4.02,-13.16 5.64,-22.86 1.38,-9.84 2.54,-19.3 3.35,-28.54 0.92,-9.56 1.48,-16.68 1.73,-21.2l-147.42 -33.37c-9,-2.08 -14.64,-6.11 -16.83,-12.46 -2.44,-6.24 -3.04,-14.92 -1.98,-26.31l10.97 -259.86 20.99 -300.95 192.8 23.56c27.94,4.13 49.49,12.14 64.52,24.24 14.78,12.1 25.51,26.81 31.86,44.45 6.45,17.57 11.43,36.62 14.32,57.15 3.46,2.18 9.35,3.81 17.43,4.83 8.07,1.06 16.15,1.62 24.83,1.73 8.64,0.1 15.56,-0.11 20.64,-0.67zm-900.5 103.5c-2.44,39.16 -7.27,76.45 -14.54,112.47 -7.26,35.98 -18.94,67.77 -34.74,95.71 -15.6,27.94 -37.29,49.49 -64.99,64.27 -27.72,15.14 -63.14,21.35 -106.18,18.81 -46.32,-3.46 -84.07,-13.41 -112.82,-29.78 -29.07,-16.4 -50.91,-38.1 -66.01,-65.08 -14.88,-27.17 -24.48,-58.11 -28.75,-93.42 -4.27,-35.07 -4.72,-73.27 -1.62,-114.37 1.87,-30.02 5.43,-60.04 10.65,-90.17 5.19,-30.34 12.92,-58.88 22.97,-85.76 10.16,-26.88 23.53,-50.7 40.29,-71.12 16.61,-20.43 37.6,-35.91 62.3,-46.74 24.94,-10.73 54.85,-15.14 89.71,-12.92 38.91,3 71.23,10.94 96.84,24.35 25.96,13.26 46.63,30.58 61.98,51.82 15.24,21.24 26.56,45.01 33.83,71.22 7.06,26.43 11.29,54.26 12.7,83.47 1.02,28.86 0.71,58.07 -1.62,87.24zm139.91 18.38c9.56,-138.04 -12.59,-242.28 -66.29,-313.16 -53.76,-71.01 -138.85,-110.24 -254.98,-118.21 -39.09,-2.44 -76.87,2.5 -113.46,14.88 -36.37,12.39 -70.62,30.84 -102.02,55.28 -31.75,24.38 -59.69,53.45 -84.03,86.68 -24.49,33.62 -44.1,70.1 -59.13,109.93 -14.99,39.47 -23.88,80.82 -27.13,123.82 -6.21,92.39 2.44,168.7 25.54,228.6 23.43,59.9 59.66,105.38 109.05,136.17 49.17,30.84 109.92,48.51 181.82,53.34 40.75,2.54 80.01,-1.94 117.3,-13.72 37.29,-11.53 72.14,-28.96 103.64,-52.17 32,-23.53 60.05,-51.23 84.39,-83.68 24.34,-32.07 43.85,-67.63 58.52,-106.33 14.79,-38.56 23.53,-79.16 26.78,-121.43zm-961.78 -305.64c0.67,-7.87 1.94,-15.98 4.02,-23.92 2.44,-8.22 5.68,-15.14 10.52,-21.13 4.62,-6.14 10.97,-9.7 19.15,-11.08l97.65 -11.64c0.5,-4.76 1.06,-11.68 1.62,-21.27 0.57,-9.32 0.92,-19.16 1.17,-28.72 0.1,-9.84 -0.71,-17.53 -2.08,-23.42l-878.56 -76.91c-2.33,10.62 -4.76,21.34 -6.6,32.1 -1.97,10.87 -3.1,20.78 -3.1,30.45l71.68 36.51c14.89,8.08 25.05,18.8 30.13,31.71 5.19,12.7 6.91,25.86 5.54,39.13l-20.22 230.43 -22.96 212.76c-0.71,8.89 -3.46,18.66 -8.08,29.42 -4.73,10.62 -11.08,20.32 -19.16,29.57 -8.18,9.1 -17.67,15.66 -28.61,19.82l-68.58 25.76c-1.51,9.13 -2.18,19.5 -2.18,30.23 0,11.11 0.45,21.94 0.91,33.02l367.77 32.21c2.44,-5.54 4.48,-13.02 6.11,-22.76 1.51,-9.8 2.89,-19.26 3.95,-28.47 1.02,-9.63 1.73,-16.75 2.08,-21.27l-109.68 -32.67c-8.64,-1.94 -13.86,-5.78 -15.34,-11.18 -1.42,-5.18 -1.63,-13.65 -0.25,-24.69l18.24 -258.03 26.21 -298.94 397.76 34.71 -25.93 296.23 -21.95 218.62c-1.27,8.78 -4.72,18.59 -10.05,28.96 -5.19,10.3 -11.54,19.9 -19.3,28.08 -7.37,8.29 -15.1,13.87 -23.28,16.27l-92.82 23.56c-0.81,9.35 -1.27,19.62 -1.48,30.34 -0.25,11.08 -0.25,21.91 0.21,33.02l406.33 35.56c2.44,-5.57 4.48,-13.05 6.35,-22.75 2.08,-9.67 3.57,-19.16 4.84,-28.4 1.16,-9.56 1.94,-16.72 2.43,-21.24l-122.48 -33.83c-7.87,-1.62 -13.52,-4.73 -17.54,-9.1 -3.7,-4.52 -5.08,-12.81 -4.05,-24.49l18.59 -262.15 21.02 -240.41zm-1234.93 -261.02c-2.75,10.62 -5.54,21.23 -7.73,31.89 -2.29,10.83 -3.81,20.74 -4.27,30.34l70.42 38.98c8.89,4.76 15.94,9.95 21.02,15.63 5.44,5.75 8.86,11.99 10.94,18.66 1.06,3.6 1.76,7.76 1.98,12.13 0.45,4.41 0.45,10.16 0.35,17.18l-461.75 306.53 12.24 -111.44 30.34 -246.56c0.95,-7.86 2.43,-15.91 4.87,-23.77 2.43,-8.19 6.1,-14.89 11.21,-20.78 4.84,-6 11.29,-9.21 19.62,-10.41l97.89 -8.29c0.67,-4.73 1.49,-11.53 2.4,-21.13 0.92,-9.21 1.63,-18.94 2.08,-28.75 0.46,-9.77 0,-17.53 -1.16,-23.43l-353.55 -43.39c-2.79,10.48 -5.54,21.24 -7.83,31.75 -2.23,10.87 -3.71,20.78 -4.17,30.34l70.42 39.05c14.64,8.89 24.44,19.72 29.07,32.74 4.62,13.16 5.89,26.11 4.05,39.41l-28.18 229.48 -30.34 211.91c-1.06,8.75 -4.17,18.49 -9.14,29 -5.08,10.48 -11.89,20.07 -20.18,28.96 -8.57,8.75 -18.24,15 -29.35,18.81l-69.36 23.17c-1.83,9.25 -2.89,19.55 -3.24,30.27 -0.46,11.08 -0.35,21.95 -0.21,33.02l366.39 45.02c2.65,-5.44 4.94,-12.95 6.77,-22.51 1.98,-9.7 3.6,-19.16 4.98,-28.4 1.41,-9.45 2.33,-16.61 2.89,-21.13l-108.41 -36.48c-5.89,-1.59 -10.12,-3.81 -12.45,-6.56 -2.29,-2.89 -3.81,-6.7 -3.92,-11.54 -0.1,-4.62 -0.1,-10.86 0.57,-18.48l3 -35.91 460.23 -306.6 -19.15 155.4 -27.03 196.35c-1.48,8.75 -5.39,18.35 -10.97,28.51 -5.5,10.26 -12.2,19.47 -20.18,27.48 -7.72,7.97 -15.7,13.26 -23.88,15.34l-93.63 20.32c-1.16,9.32 -1.97,19.62 -2.54,30.34 -0.67,11.12 -1.06,21.8 -0.92,32.92l404.82 49.74c2.64,-5.4 5.08,-12.91 7.16,-22.51 2.43,-9.56 4.27,-19.05 5.89,-28.19 1.38,-9.41 2.54,-16.58 3,-21.09l-121.18 -38.1c-7.76,-1.84 -13.3,-5.19 -17.11,-9.81 -3.56,-4.51 -4.73,-12.8 -3.25,-24.48l27.7 -261.45 29.45 -239.53c0.92,-7.73 2.44,-15.81 4.87,-23.64 2.65,-8.22 6.11,-15.03 11.19,-20.92 4.83,-5.89 11.28,-9.24 19.61,-10.26l98.04 -8.29c0.56,-4.77 1.37,-11.68 2.25,-21.17 0.96,-9.35 1.63,-18.91 2.12,-28.72 0.46,-9.84 0,-17.53 -1.16,-23.53l-353.59 -43.42zm-1365.92 -156.28l-26.67 216.64c4.97,1.51 11.78,3.14 20.21,4.62 8.54,1.52 16.86,2.54 24.7,3.14 8.22,0.46 14.21,0 17.99,-1.52 6.84,-19.65 15.38,-37.85 25.05,-54.61 9.84,-16.61 23.24,-29.91 40.07,-39.33 17.08,-9.74 39.83,-14.01 68.12,-12.74l108.38 13.27 -36.38 296.58 -30.93 216.21c-1.59,8.79 -5.4,18.35 -10.94,28.51 -5.68,10.16 -12.59,19.51 -20.32,27.48 -7.76,7.94 -15.59,13.23 -23.78,15.34l-93.73 20.43c-1.06,9.24 -1.87,19.51 -2.54,30.27 -0.57,10.94 -0.95,21.8 -0.81,32.88l404.81 49.74c2.54,-5.43 4.97,-12.95 7.16,-22.51 2.33,-9.59 4.27,-19.01 5.79,-28.29 1.48,-9.45 2.54,-16.51 3.1,-20.99l-121.18 -38.1c-7.76,-1.87 -13.3,-5.19 -17.11,-9.81 -3.56,-4.51 -4.72,-12.8 -3.35,-24.48l27.8 -261.44 36.37 -296.55 108.41 13.37c27.83,5.54 48.82,15.14 63.04,28.75 14.08,13.27 23.88,29.42 29.32,47.91 5.4,18.59 9.21,38.35 11.07,58.98 3.36,2.44 9.11,4.27 17.19,5.79 7.97,1.48 16.05,2.4 24.58,3 8.68,0.56 15.74,0.67 20.78,0.32l26.57 -216.65 -702.77 -86.21z"/>
  <path class="fil0" d="M23150.78 14757.14c-0.21,0 -4.62,3.35 -13.16,9.34 -8.53,6 -20.32,13.73 -34.74,22.97 -14.64,9.35 -30.73,19.05 -48.62,28.86 -17.99,9.8 -36.33,18.34 -55.38,25.86 -18.7,7.76 -36.83,12.7 -54.15,15.34 -26.89,3.6 -48.83,2.33 -65.55,-3.56 -16.76,-6.14 -29.21,-15.03 -37.64,-26.92 -8.43,-11.78 -13.62,-25.05 -15.49,-39.58 -4.94,-35.56 3.25,-66.5 24.73,-92.92 21.34,-26.46 55.49,-48.61 102.27,-66.82 17.89,-6.84 36.8,-13.4 56.45,-19.75 19.86,-6.25 38.41,-11.93 56.09,-17.08 17.42,-4.87 31.85,-8.89 42.82,-11.78 10.87,-3 16.73,-4.38 16.97,-4.38l25.4 180.42zm315.35 87.13l-17.88 -55.53 -155.01 21.84 -49.53 -279.47 -27.84 -198.65c-5.89,-40.07 -16.72,-72.18 -32.67,-96.31 -15.69,-24.09 -34.71,-42.22 -56.9,-54.11 -22.15,-11.54 -46.18,-19.05 -71.58,-22.3 -25.61,-3.21 -51.01,-3.67 -76.62,-1.83 -25.4,1.94 -49.18,4.51 -71.47,7.83 -42.83,6.14 -84.6,15.84 -125.35,29.56 -40.64,13.76 -79.09,31.19 -115.46,52.21l34.33 79.27c16.61,-7.83 35.52,-15.34 56.65,-22.86 21.24,-7.62 42.62,-14.43 64.42,-20.18 21.94,-6.03 42.37,-10.3 61.06,-12.94 46.18,-6.81 84.49,-7.98 114.52,-3.6 30.12,4.51 53.3,16.3 69.85,35.45 16.36,19.16 27.23,47.7 32.17,85.09l15.84 112.18c-0.25,0 -5.68,1.52 -15.84,4.17 -10.27,2.64 -24.13,6.24 -41.52,10.86 -17.32,4.62 -36.83,9.81 -58.21,15.91 -21.45,5.89 -43.5,12.46 -66.01,19.19 -32.45,9.92 -63.74,23.08 -93.76,39.34 -30.13,16.3 -56.87,35.81 -80.23,58.88 -23.28,23.07 -40.6,49.99 -52.03,80.11 -11.68,30.38 -14.89,64.42 -10.05,102.38 6.13,39.83 19.29,71.79 39.61,96.27 20.43,24.38 45.69,41.1 75.81,50.7 30.13,9.56 62.59,11.99 97.69,7.02 27.9,-4.13 53.76,-11.08 77.43,-21.2 23.78,-9.95 45.37,-21.63 64.53,-34.79 19.4,-13.26 36.47,-26.56 51.15,-40.25 14.75,-13.86 26.99,-26.56 36.69,-38.03 9.81,-11.54 16.97,-20.53 21.59,-27.2 2.22,14.18 5.18,28.05 9.13,41.98 3.81,13.76 9.92,26.25 18,37.18 8.32,10.87 19.75,18.95 34.75,24.03 14.99,5.43 34.74,6.24 58.98,3.14 10.41,-1.52 22.75,-4.62 36.83,-9.39 14.08,-4.62 28.86,-10.01 44.31,-16.82 15.24,-6.49 30.02,-13.41 44.34,-20.46 13.97,-7.27 26.21,-14.33 36.59,-21.1 10.16,-6.49 17.67,-12.38 21.69,-17.57zm-1514.83 144.64c10.38,-27.13 19.65,-54.26 27.34,-81.7 7.98,-27.38 15.28,-56.24 21.49,-86.36 3.46,-16.62 6.7,-37.54 9.45,-62.44 2.68,-25.19 4.87,-52.89 6.85,-83.58 1.73,-30.83 3.1,-62.79 4.02,-96.48 1.06,-33.41 1.48,-67 1.48,-100.47 -0.32,-33.59 -0.88,-65.76 -1.94,-96.49l222.32 -27.37 46.18 376.45 22.05 214.34 -359.24 44.1zm-165.41 338.7c3.35,-0.24 8.67,-0.35 15.59,-1.06 6.91,-0.56 14.32,-1.27 22.15,-2.18 7.87,-1.03 15.03,-2.05 21.38,-3.35 6.35,-1.27 10.94,-2.54 13.51,-3.81 1.03,-10.98 1.48,-25.3 1.48,-43.18 -0.1,-18 0.92,-37.15 2.9,-57.93 2.29,-20.57 7.16,-40.43 14.64,-59.69 7.51,-19.3 19.51,-35.67 35.66,-49.18 16.16,-13.86 38.56,-22.4 66.75,-26.32l427.67 -52.52c14.54,-1.59 28.26,2.78 41.1,12.59 12.81,9.91 24.8,23.18 35.77,39.93 10.97,16.51 20.92,34.4 29.81,53.56 8.54,18.91 16.23,36.83 22.72,53.79 6.35,16.87 11.43,30.48 15.35,40.89 2.78,0.57 7.62,0.88 14.53,0.57 6.7,-0.36 14.22,-0.82 22.51,-1.73 8.08,-0.81 15.59,-1.98 22.54,-3 6.81,-1.38 11.75,-2.44 14.78,-3.6l-38.2 -310.73 -138.33 16.97 -33.34 -212.97 -39.97 -325.08c-1.94,-14.43 -0.77,-26.67 3.36,-36.59 4.16,-10.16 12.73,-17.42 25.64,-21.94l86.12 -29.32c-1.38,-11.88 -3.36,-24.23 -5.79,-37.39 -2.54,-13.05 -5.43,-24.69 -8.75,-34.61l-670.1 82.27c-0.35,3.14 -0.35,8.18 -0.35,14.92 0.1,7.02 0.56,14.43 1.02,22.37 0.35,8.08 1.06,15.24 1.31,22.05 0.56,6.59 0.88,11.22 1.23,14.11l67.91 10.37c13.48,1.94 23.99,4.87 31.4,8.18 7.37,3.46 12.56,8.65 15.8,15.49 3.35,6.56 5.65,15.91 6.81,27.59 1.02,7.87 1.62,20.32 1.73,37.39 -0.11,16.97 -0.35,36.94 -0.92,59.69 -0.56,22.72 -1.37,46.96 -2.64,72.25 -1.52,25.51 -3,50.24 -4.87,74.79 -1.73,24.59 -3.81,47.1 -6.11,67.42 -2.68,20.32 -5.11,37.07 -7.86,49.88 -6.6,29.07 -15.59,59.58 -27.13,91.65 -11.54,31.96 -25.97,66.15 -43.18,102.27l-94.05 11.54 38.42 313.65zm-271.04 -601.55c3.7,39.05 4.72,76.65 3.24,113.38 -1.62,36.58 -8.08,69.81 -19.4,99.94 -11.08,30.06 -29.07,54.75 -54.12,73.66 -24.94,19.3 -59.02,30.94 -101.95,35.1 -46.28,3.78 -85.05,0 -116.1,-11.68 -31.29,-11.64 -56.23,-29.66 -75.39,-53.9 -18.94,-24.59 -33.23,-53.55 -42.93,-87.84 -9.7,-33.94 -16.16,-71.69 -19.54,-112.68 -2.86,-30.02 -4.03,-60.25 -3.57,-90.7 0.36,-30.83 3.57,-60.15 9.35,-88.3 5.68,-28.19 15.24,-53.73 28.54,-76.55 13.16,-22.76 31.5,-41.45 54.22,-55.88 23,-14.54 51.83,-23.53 86.58,-26.88 38.91,-3.14 72.03,-0.25 99.51,8.89 27.7,9.1 50.8,22.96 69.25,41.55 18.49,18.45 33.38,40.29 44.7,64.99 11.08,25.04 19.62,51.82 25.51,80.46 5.64,28.4 9.8,57.26 12.1,86.44zm140.97 -3.67c-12.03,-137.97 -50.34,-237.35 -114.3,-299.09 -64.28,-61.66 -154.45,-87.17 -270.34,-76.8 -39.15,3.74 -75.6,14.54 -109.92,32.46 -34.01,17.88 -64.84,41.45 -92.08,70.52 -27.48,29.1 -50.55,62.12 -69.39,98.81 -18.94,36.97 -32.56,76.2 -41.2,117.76 -8.54,41.45 -10.97,83.68 -7.41,126.65 8.32,92.21 28.64,166.08 60.96,221.72 32.42,55.52 75.39,94.75 129.04,117.51 53.34,22.64 116.03,30.72 187.82,24.16 40.75,-3.84 78.85,-14.36 113.7,-31.89 35.11,-17.22 66.71,-39.97 94.3,-67.77 27.84,-28.15 51.26,-60.01 70.2,-95.78 19.05,-35.56 32.78,-73.76 41.21,-114.19 8.54,-40.39 10.86,-81.95 7.41,-124.07zm2244.23 -346.75l1550.28 -245.11 10.62 68.26 -1550.25 245.15 -10.65 -68.3z"/>
  <path class="fil0" d="M20818.02 14614.17l-19.05 -217.46 -610.97 53.45c-0.5,10.83 -0.96,21.94 -0.96,32.74 0,11 0.71,21.02 2.19,30.58l77.01 23.57c16.16,5.32 27.94,14.11 35.21,26 7.27,11.64 11.18,24.23 12.24,37.6l20.07 230.33 14.43 213.54c0.71,8.85 -0.21,19.01 -2.89,30.37 -2.86,11.29 -7.48,22.05 -13.72,32.42 -6.6,10.37 -14.78,18.59 -24.84,24.49l-63 37.25c-1.06,10.86 -0.36,21.38 2.18,31.54 2.44,10.12 4.98,20.42 7.62,31.04l410.6 -35.91c1.38,-5.89 1.94,-13.72 2.08,-23.57 -0.24,-9.77 -0.56,-19.36 -1.16,-28.71 -0.57,-9.6 -1.17,-16.76 -1.62,-21.27l-150.75 -9.78c-9.24,-0.67 -15.48,-3.7 -18.59,-9.7 -3.45,-5.75 -5.4,-14.22 -6.1,-25.75l-29.92 -258.34 -26.21 -300.36 194.07 -6.91c28.25,-0.35 50.8,4.13 67.52,13.76 16.4,9.66 29.31,22.47 38.45,38.98 9.1,16.26 16.97,34.29 22.97,54.12 3.81,1.62 9.8,2.36 17.99,2.11 8.22,-0.24 16.3,-0.95 24.83,-2.22 8.54,-1.27 15.35,-2.54 20.32,-3.91z"/>
  <path class="fil0" d="M19055.89 14961.77c-2.43,-50.87 -7.62,-99.23 -15.24,-145.2 -7.97,-45.58 -19.75,-87.38 -35.52,-125.13 -15.95,-37.71 -37.54,-69.95 -64.46,-97.08 -26.98,-26.89 -60.92,-47.21 -101.56,-60.61 -40.75,-13.51 -90.03,-18.8 -147.43,-16.05 -51.82,3.03 -97.89,15.03 -138.5,35.56 -40.64,20.67 -74.68,48.01 -102.62,82.3 -27.94,34.08 -48.47,73.31 -61.98,117.16 -13.52,43.88 -18.95,90.42 -16.65,139.91 3.7,60.04 18.23,110.49 44.23,151.8 26.07,41.35 61.28,72.04 105.48,92.25 44.24,20.18 95.47,29.07 153.53,26.32 28.54,-1.76 55.78,-6.39 81.85,-13.41 25.86,-7.37 52.17,-15.7 78.74,-25.29l-15.81 -82.52c-31.29,7.41 -62.69,11.89 -94.33,13.52 -67.87,3.35 -119.49,-12.25 -154.3,-46.54 -35,-34.39 -54.16,-86.07 -57.61,-155.25 -1.73,-28.61 -0.6,-57.05 3.45,-85.16 4.03,-28.05 11.79,-53.94 23.53,-77.51 12.03,-23.42 28.4,-42.83 50.24,-57.61 21.45,-14.71 49.04,-23.42 82.51,-25.36 36.62,-1.62 68.37,4.41 95.36,17.78 26.92,13.47 49.64,32.21 68.23,56.3 18.45,24.03 33.37,51.26 45.01,81.53 11.43,30.13 19.97,61.28 25.75,93.38 5.75,32.1 9.46,62.58 10.73,92 2.29,38.21 2.89,76.77 2.29,115.89 -0.77,38.88 -3.91,76.91 -9.77,114.16 -5.79,36.94 -15.28,71.72 -28.19,104.25 -12.91,32.31 -30.58,61.31 -52.98,86.46 -22.41,25.37 -50.56,45.62 -84.49,60.93 -34.08,15.27 -74.79,24.37 -122.38,27.16 -19.83,1.02 -38.77,0.56 -56.55,-1.38 -18.14,-1.97 -36.73,-5.32 -56.2,-10.09l-22.75 114.87c23.42,7.16 47.66,11.68 72.14,13.51 24.83,1.73 49.32,1.98 73.87,0.49 51.61,-3.03 98.35,-13.9 139.81,-32.56 41.66,-18.52 78.49,-43.21 110.59,-74.15 31.96,-30.94 59.44,-65.9 82.3,-105.48 22.83,-39.48 41.17,-81.71 55.39,-126.51 13.97,-44.91 23.78,-90.49 29.56,-137.23 5.44,-46.57 7.02,-92.5 4.73,-137.41z"/>
  <path class="fil0" d="M19815.62 15022.69c-3.81,-41.46 -14.78,-75.64 -33.23,-105.27 -18.24,-28.3 -42.72,-52.21 -71.72,-70.35 -29.31,-19.47 -61.88,-33.44 -98,-43.14 -36.23,-10.97 -74.79,-17.89 -114.16,-20.78 -40.85,-4.02 -80.12,-5.54 -120.51,-4.52l-0.7 -204.78 367.1 -10.52 -4.17 -143.12 -472.22 43.64 -0.25 463.37c26,-1.05 53.34,-2.29 81.95,-2.43 28.64,-1.31 56.23,0.14 85.19,2.65 27.59,2.64 54.05,6.7 79.66,14.78 25.4,6.81 48.47,16.4 69.15,28.85 19.5,12.6 36.72,29.21 49.07,50.2 13.61,19.65 21.13,45.02 23.88,74.83 3.6,38.91 0,70.52 -12.13,93.84 -10.94,23.17 -30.13,41.91 -55.18,53.34 -24.8,12.8 -55.49,19.51 -93.13,22.93 -27.13,2.57 -53.24,2.47 -79.66,-0.43 -26.32,-2.78 -52.63,-5.57 -76.66,-11.11 -24.02,-5.64 -45.47,-11.39 -66.92,-17.28l-26.46 122.48c21.38,5.89 45.26,10.16 70.56,14.43 25.15,4.13 52.74,6.77 82.86,7.94 28.86,1.3 62.8,0.7 97.65,-2.54 37.5,-3.46 72.04,-11.89 105.98,-25.51 33.93,-14.89 63.6,-31.96 91.44,-55.42 26.63,-22.05 50.41,-47.77 69.92,-76.98 18.27,-27.83 32.31,-59.09 42.16,-93.98 8.64,-33.33 11.88,-68.89 8.53,-105.12z"/>
  <polygon class="fil0" points="5587.27,14408.28 4036.99,14163.14 4026.37,14231.44 5576.76,14476.62 "/>
  <path class="fil1" d="M16091.4 7687.4l0 -2410.81 -1544.88 278.76 -1085.18 -278.76 0 2419.24 1085.18 852.03 1544.88 -860.46zm-1483.43 549.35c0,33.93 -27.48,61.52 -61.45,61.52 -33.9,0 -61.49,-27.59 -61.49,-61.52l0 -2370.42c0,-33.94 27.59,-61.42 61.49,-61.42 33.97,0 61.45,27.48 61.45,61.42l0 2370.42z"/>
  <rect class="fil2 str0" x="1875.19" y="3487.87" width="26456.91" height="14669.99"/>
 </g>
</svg>
